<?xml version='1.0' encoding='utf-8'?>
<svg xmlns="http://www.w3.org/2000/svg" version="1.1" viewBox="0 0 600 600"> <defs> <style>.st0 { fill: #cadfe8; } .st1 { fill: #f1ada5; } .st2 { fill: #f9a621; } .st3 { fill: #fae86b; } .st4 { fill: none; stroke: #4f4a7f; } .st4, .st5 { stroke-linecap: round; stroke-linejoin: round; stroke-width: 6.4px; } .st5 { fill: #fccd3a; stroke: #4f4a80; } .st6 { fill: #c4c2e3; } .st7 { fill: #fbcf82; } .st8 { fill: #f6822a; } .st9 { fill: #f48351; } .st10 { fill: #4d497f; } .st11 { fill: #9492c1; } .st12 { fill: #fefefe; } .st13 { fill: #7a77ab; }</style> </defs> <path class="st0" d="M478.4,528.1c14,43.7-37.5,25-49.6,32.7-11.6,7.4-7.4,30.9-32.1,28.9-17.7-1.4-22.3-12.6-35.6-20.1-28.4-16-32.4,33.8-64.2,30.2-24-2.7-30.5-34.1-47.8-33.8-15.7.3-26.1,22.6-47.2,23.8-24.1,1.3-19.8-21.6-30.9-28.9-7.1-4.7-23-.3-31.5-1.6-19.3-2.9-23.8-15.9-17.7-32.9,6.3-1.4,4.8,5.1,9.3,8.7,16.3,13.1,36.6-6.4,45.8-19,16.9-23.1,24.7-51.8,34.1-78.4-1.4,26.1-7.4,51.6-14.3,76.7-4.2,15.3-19.2,38.4-2,49.9,21.2,14.2,46.2-13.9,54.5-31.2,8.6-17.8,9.8-37.7,13.7-56.9,3.2,27.3-5,59.3,9.6,84.3,12.5,21.3,40.6,21.9,53.7.6,15.1-24.7,6.2-57.2,10.2-84.3,3.4,21.9,6.5,45.8,18.4,65,9.1,14.7,29.3,32.8,47.5,23.6,20.4-10.2,4.1-36.1-.3-52.2-6.6-24.3-13.4-50.2-13.7-75.5,3.9,10.9,6.7,22.2,10.8,33,9,23.6,30.7,73.3,62.1,67.9,8.5-1.4,9.2-11.1,17-11.1,0,.2.2.4.2.6Z"/> <path class="st12" d="M395.4,222.7c.2,0,.4,0,.6-.1.2,1,.7,2.1,1.1,3,4.7,9.8,11.6,19.8,15.4,29.9,0,.2.2.4.2.6,10.6,28.9,6.3,53.1,10.8,80.7,1.8,10.7,2.5,12,14,11.1,24.6-2,58.9-47.5,78.5-20.4,21.9,30.3-36,73-57.5,86.2-4,2.4-19.8,9.6-20.9,12.4-1.6,4,10.2,36.3,12.5,42,7.8,19.3,21.7,40.7,28,59.5,0,.2.2.4.2.6,0-.2-.2-.4-.2-.6-7.8,0-8.5,9.6-17,11.1-31.4,5.3-53.1-44.4-62.1-67.9-4.1-10.8-6.9-22.1-10.8-33,.3,25.3,7.1,51.2,13.7,75.5,4.4,16.1,20.7,42,.3,52.2-18.2,9.1-38.4-8.9-47.5-23.6-11.9-19.2-15-43.1-18.4-65-4,27.1,4.9,59.6-10.2,84.3-13,21.3-41.2,20.7-53.7-.6-14.6-24.9-6.4-56.9-9.6-84.3-3.9,19.1-5.1,39.1-13.7,56.9-8.3,17.3-33.3,45.4-54.5,31.2-17.1-11.5-2.2-34.5,2-49.9,6.9-25.1,12.9-50.6,14.3-76.7-9.4,26.6-17.3,55.3-34.1,78.4-9.2,12.6-29.5,32-45.8,19-4.5-3.6-3-10.2-9.3-8.7,7.1-20.1,20.9-41.1,29-61.8,2.2-5.5,12.6-35.7,11.3-39.5-28-11.9-91.8-54-82.3-89.9,11.1-42.1,59.5,10.6,81.2,12.8,11.2,1.2,12.7.2,14.6-10.5,4.8-27.8.4-52.1,10.7-81.6s10.3-20.6,15.2-30.8c.4-.9,1-1.9,1.1-2.9.2,0,.4.1.6.2,52.2,13.9,139.7,14.1,192,.5Z"/> <path class="st1" d="M232,325.1c6.1-.6,20.2.6,23.6,6.7,5.5,9.7-14.1,14-20.7,13.7-20.1-.9-25.7-18-2.9-20.4Z"/> <path class="st1" d="M358,325.1c6.1-.6,20.2.6,23.6,6.7,5.4,9.5-14,14-20.7,13.7-20.8-.9-25.2-18.1-2.9-20.4Z"/> <path class="st10" d="M277.5,320.5c3.5-.7,44.5-.4,46.7.6,5,2.3,2.1,16.9.3,21.3-9.3,22.7-41.2,23.8-49.6,0-1.9-5.4-4.6-20.4,2.6-21.9Z"/> <path class="st9" d="M295,338.5c5.3-.8,12.7.1,16.9,3.5,5,4,4.3,6.4-.6,9.9-6.7,4.7-18.2,4.6-24.5-.6-7.1-5.8,2-11.9,8.2-12.8Z"/> <path class="st10" d="M242.5,266.8c31.3-3.7,29.8,52.9-.6,48.4-21.8-3.2-22.4-45.7.6-48.4Z"/> <path class="st12" d="m237.3 279.6c11.6-1.9 12.1 13.2 4.1 15.2-10.7 2.6-12.8-13.7-4.1-15.2z"/> <path class="st10" d="M351,266.8c31.6-3.7,29.8,53-.6,48.4-21.5-3.3-22.3-45.8.6-48.4Z"/> <path class="st12" d="M346.3,279.6c13.6-2.4,11.7,18.1-.6,15.2-6-1.4-6.9-13.8.6-15.2Z"/> <path class="st11" d="M364,177.8c5.4.1,11,0,16.4.3,27.1,1.6,61.1,7,86,18-1,1.6-2.8,1.9-4.4,2.5-19.5,8-45.9,18.6-65.9,23.9-.2,0-.4,0-.6.1-52.3,13.6-139.8,13.5-192-.5-.2,0-.4-.1-.6-.2-15.7-4.2-32.7-11.5-48.2-17.1.2-.6.3-4.5.5-4.7,1.4-1.2,21.4-6.9,24.5-7.6,29.4-6.3,60.5-6.1,90.4-8.2l1-4.5c4.6,2.4,4.8,4.1,11,5.1,11.1,1.8,43.4,1.6,50.5-7.8.1-.2.4-.2.5-.3h.6c10.2.3,20.4.6,30.6.8Z"/> <path class="st13" d="M412.5,255.5c-3.8-10.1-10.8-20.1-15.4-29.9-.4-.9-1-2-1.1-3-.2,0-.4,0-.6.1.2,0,.4,0,.6-.1,20.1-5.3,46.5-15.9,65.9-23.9,1.6-.6,3.4-1,4.4-2.5,74.8,33.2-19.2,55.4-50.9,59.2l-2.7.6c0-.2-.2-.4-.2-.6Z"/> <path class="st13" d="M132.3,196c1.1,1.5,3.4,2,5.1,2.7,5.7,2.2,11.4,4.2,17.1,6.2,15.5,5.7,32.4,12.9,48.2,17.1s.4.1.6.2c-.2,0-.4-.1-.6-.2-.1,1-.7,2-1.1,2.9-4.9,10.2-11.5,20.1-15.2,30.8-1.1.2-2.1-.2-3.1-.3-30.9-4.4-125.4-25.9-51-59.4Z"/> <path class="st6" d="M270.9,180l-1,4.5c-29.9,2-61,1.9-90.4,8.2-3.1.7-23.1,6.3-24.5,7.6-.2.2-.2,4.1-.5,4.7-5.7-2.1-11.5-4.1-17.1-6.2-1.7-.6-4-1.1-5.1-2.7,22.8-10.2,61.2-16.9,86.3-18.4,3.4-.2,7.2.6,10.8.4,5.7-.2,34.2-2,37.2-1s.4.3.6.4c1.4.5,2.6,2,3.7,2.6Z"/> <path class="st11" d="M382.8,47.2c-11.5-10.7-35-16.4-37.9,4.4-1.6,11.4,20.3,69.9,24.9,85.5l-2.7.4c-4.4-.3-8.7-.6-13.1-.9-5.8-.4-11.5-.8-17.3-1.2l-2.8.6c0-.2-.1-.3-.2-.5-3-8.2-10.8-11.5-18.6-12.3-12.7-1.3-42.7-2.2-48.8,11.2,0,.2-.4.3-.4.5h0l-20.6,1.5c0-1.7-.4-3.8-.1-5.3.4-2.5,10.5-33.6,11.7-35,2.4-3,9.4-3.1,12.2-11.7,3.1-9.5-1.2-12.5-1.2-18.1,0-4.5,12.8-29.4,16.3-33.8,19.6-24.6,58.2-29.7,83.7-11.4,6.6,4.7,18.5,17.1,14.9,25.9Z"/> <path class="st6" d="M382.8,47.2c3.6-8.8-8.3-21.2-14.9-25.9-25.5-18.3-64.1-13.2-83.7,11.4-3.5,4.4-16.3,29.4-16.3,33.8,0,5.6,4.3,8.6,1.2,18.1-2.8,8.6-9.8,8.7-12.2,11.7-1.2,1.4-11.3,32.5-11.7,35-.3,1.6.1,3.7.1,5.3-4.3.3-8.6.6-12.9,1-1,0-2,.1-3,.3,15.6-53.6,44.2-154.9,119-135.3,28.8,7.5,48.8,27.1,45.9,58.3-4.4-4-7.1-9.5-11.5-13.6Z"/> <path class="st8" d="M369.7,137.1c3.7,12.6,6.8,25.4,10.1,38,.2.9,1,1.8.5,3-5.4-.3-10.9-.2-16.4-.3l-10.1-41.2c4.4.3,8.7.6,13.1.9l2.7-.4Z"/> <path class="st7" d="M265.9,135h0c-.3.9.2,5.5.1,7.1-3.7-.2-24.7.7-26.4,2.2s-10.4,29.5-10.1,33.8c-3.7.1-7.4-.6-10.8-.4.5-1,.8-2,1.1-3.1,3.7-12.1,6-24.7,9.6-36.8,1-.2,1.9-.2,3-.3,4.3-.4,8.6-.6,12.9-1l20.6-1.5Z"/> <path class="st2" d="M354,136.6l10.1,41.2c-10.2-.3-20.4-.5-30.6-.8h-.6c1.5-2.4,2.1-37.6,1-40.9s-.1-.3-.2-.5c0,.2.1.3.2.5l2.8-.6c5.8.4,11.5.8,17.3,1.2Z"/> <path class="st2" d="M266,142.1c-.5,11.2.9,23.1.6,34.3v.6c-3-1-31.5.8-37.2,1-.2-4.3,8.8-32.7,10.1-33.8s22.7-2.4,26.4-2.2Z"/> <path class="st3" d="M333.7,135.6c0,.2.1.3.2.5,1.1,3.4.5,38.5-1,40.9,0,.1-.4.2-.5.3-7.1,9.4-39.4,9.7-50.5,7.8-6.2-1-6.4-2.7-11-5.1-1.1-.6-2.3-2-3.7-2.6s-.4-.3-.6-.4v-.6c.3-11.3-1.1-23.1-.6-34.3,0-1.6-.5-6.2-.1-7.1h0c0-.2.4-.3.4-.5,6-13.4,36.1-12.5,48.8-11.2s15.6,4.1,18.6,12.3Z"/> <path class="st5" d="m288.3 139.7c2.8-0.8 25.4 0 27.2 2.3s1.8 22.6-0.9 25-27.7 2.1-30.1-0.6-2.2-22.5 0.3-25 2.6-1.5 3.5-1.7z"/> <path class="st4" d="M265.9,135l-20.6,1.5c-4.3.3-8.6.6-12.9,1"/> <path class="st4" d="m219.8 174.6c3.7-12.1 6-24.7 9.6-36.8 15.6-53.6 44.2-154.9 119-135.3 28.8 7.5 48.8 27.1 45.9 58.3-4.4-4-7.1-9.5-11.5-13.6-11.5-10.7-35-16.4-37.9 4.4-1.6 11.4 20.3 69.9 24.9 85.5 3.7 12.6 6.8 25.4 10.1 38"/> <path class="st4" d="M367,137.5c-4.4-.3-8.7-.6-13.1-.9-5.8-.4-11.5-.8-17.3-1.2"/> <path class="st4" d="M265.9,135l.4-.5c6-13.4,36.1-12.5,48.8-11.2s15.6,4.1,18.6,12.3c0,.2.1.3.2.5,1.1,3.4.5,38.5-1,40.9"/> <path class="st4" d="M265.9,135c-.3.9.2,5.5.1,7.1-.5,11.2.9,23.1.6,34.3v.6"/> <path class="st4" d="M266.6,177.1l.6.4c1.4.5,2.6,2,3.7,2.6,4.6,2.4,4.8,4.1,11,5.1,11.1,1.8,43.4,1.6,50.5-7.8l.5-.3"/> <path class="st4" d="M266.6,177.1c-3-1-31.5.8-37.2,1-3.7.1-7.4-.6-10.8-.4-25.1,1.5-63.5,8.1-86.3,18.4-74.4,33.5,20.1,55,51,59.4"/> <path class="st4" d="M332.9,177h.6c10.2.3,20.4.6,30.6.8,5.4.1,11,0,16.4.3,27.1,1.6,61.1,7,86,18,74.8,33.2-19.2,55.4-50.9,59.2"/> <path class="st4" d="M137.4,198.7c5.7,2.2,11.4,4.2,17.1,6.2,15.5,5.7,32.4,12.9,48.2,17.1s.4.1.6.2c52.2,13.9,139.7,14.1,192,.5.2,0,.4,0,.6-.1,20.1-5.3,46.5-15.9,65.9-23.9"/> <path class="st4" d="M201.6,225c-4.9,10.2-11.5,20.1-15.2,30.8-10.3,29.6-5.9,53.8-10.7,81.6-1.9,10.7-3.4,11.7-14.6,10.5-21.7-2.3-70-54.9-81.2-12.8-9.5,36,54.2,78,82.3,89.9,1.3,3.9-9.2,34-11.3,39.5-8.1,20.7-21.9,41.7-29,61.8-6,17-1.6,29.9,17.7,32.9,8.5,1.3,24.3-3.1,31.5,1.6,11.1,7.3,6.8,30.2,30.9,28.9,21.1-1.2,31.5-23.5,47.2-23.8,17.3-.3,23.8,31.1,47.8,33.8,31.8,3.6,35.8-46.2,64.2-30.2,13.3,7.5,17.8,18.7,35.6,20.1,24.6,1.9,20.5-21.6,32.1-28.9,12-7.6,63.6,11,49.6-32.7,0-.2-.2-.4-.2-.6-6.3-18.8-20.2-40.2-28-59.5-2.3-5.7-14-38-12.5-42,1.1-2.8,16.9-9.9,20.9-12.4,21.5-13.2,79.4-55.9,57.5-86.2-19.6-27.1-53.9,18.4-78.5,20.4-11.5,1-12.2-.3-14-11.1-4.5-27.6-.2-51.8-10.8-80.7,0-.2-.2-.4-.2-.6-3.8-10.1-10.8-20.1-15.4-29.9"/> </svg>